<?xml version="1.0" encoding="UTF-8"?>
<svg id="Layer_2" data-name="Layer 2" xmlns="http://www.w3.org/2000/svg" viewBox="0 0 2015.13 379.77">
  <defs>
    <style>
      .cls-1 {
        fill: #231f20;
      }

      .cls-2 {
        fill: #318fb5;
      }
    </style>
  </defs>
  <g id="Layer_1-2" data-name="Layer 1">
    <g>
      <g>
        <path class="cls-2" d="M204.59,24.22c1.44,0,3.03-.86,4.76-2.6.87-1.15,1.87-2.16,3.03-3.03,1.15-.86,3.31-1.3,6.49-1.3,11.82,0,17.73.15,17.73.43l-11.68,7.79c-3.75,3.18-5.62,5.91-5.62,8.22,0,1.73,1.01,2.6,3.03,2.6,1.15,0,2.6-.43,4.33-1.3,10.96-4.03,19.75-10.81,26.38-20.33,1.44-2.6,2.16-4.61,2.16-6.06,0-5.76-9.37-8.65-28.11-8.65-11.54,0-19.46,5.19-23.79,15.57-.29.58-.72,1.3-1.3,2.16-.58.58-.87,1.45-.87,2.6,0,2.6,1.15,3.89,3.46,3.89Z"/>
        <path class="cls-2" d="M274.23,216.27l1.3-.43c10.66-4.61,19.61-9.8,26.82-15.57,7.2-5.76,12.98-11.39,17.3-16.87,4.33-5.19,7.5-9.66,9.52-13.41l1.73-3.03,4.76,4.33c1.15,2.02,2.45,3.03,3.89,3.03,2.88,0,4.33-3.03,4.33-9.08,0-5.19-2.02-8.93-6.06-11.25.87-3.46,1.3-6.34,1.3-8.65,0-6.34-1.59-12.39-4.76-18.17-.29-.87-1.3-1.87-3.03-3.03-1.45-1.15-3.46-1.73-6.06-1.73-4.33,0-8.51,3.03-12.54,9.08-3.18,4.62-4.76,9.81-4.76,15.57,0,3.75,1.01,6.64,3.03,8.65,2.01,1.73,4.03,3.18,6.06,4.33,1.73.87,3.31,1.59,4.76,2.16-6.64,9.52-14.56,18.46-23.79,26.82-8.94,8.37-16.87,14.85-23.79,19.46-2.02,1.73-3.03,3.32-3.03,4.76,0,2.02,1.01,3.03,3.03,3.03ZM320.94,144.47c-1.16-.57-1.73-1.01-1.73-1.3v-.43c2.3-3.17,4.03-4.76,5.19-4.76h.43c1.44,1.45,2.45,3.18,3.03,5.19.28,1.73.43,3.18.43,4.33v.58l-.87-.58c-1.16-.28-2.31-.72-3.46-1.3-.87-.57-1.88-1.15-3.03-1.73Z"/>
        <path class="cls-2" d="M102.51,198.1c-2.02-.57-3.03-1.01-3.03-1.3,0-.86.57-2.16,1.73-3.89,4.03-4.61,7.93-6.92,11.68-6.92l2.16.43c6.06,0,9.08-5.33,9.08-16,0-6.34-3.03-9.52-9.08-9.52-3.75,0-7.5,1.45-11.25,4.33-3.46,2.6-6.92,7.64-10.38,15.14-5.48,12.11-8.22,21.78-8.22,28.98,0,8.37,3.31,12.69,9.95,12.98h8.65c8.36,0,12.54.87,12.54,2.6,0,.58-.15,1.01-.43,1.3-2.02,2.6-5.62,4.76-10.81,6.49-4.91,1.73-9.81,2.6-14.71,2.6-10.96,0-16.44,1.45-16.44,4.33,0,5.77,9.37,9.23,28.11,10.38,3.74,0,7.64-.72,11.68-2.16,4.03-1.44,7.06-3.74,9.08-6.92,2.6-4.9,4.47-9.8,5.62-14.71,1.15-4.61,1.73-8.5,1.73-11.68,0-9.52-3.61-14.56-10.81-15.14-8.94,0-14.56-.43-16.87-1.3Z"/>
        <path class="cls-2" d="M294.99,104.67c6.34,0,10.81-6.06,13.41-18.17,0-.57.14-1.01.43-1.3v-1.3c0-2.3-1.01-3.46-3.03-3.46-1.16,0-2.31,1.16-3.46,3.46-.58,1.73-1.45,3.18-2.6,4.33-.87.86-1.73,1.3-2.6,1.3-3.75,0-5.62-3.89-5.62-11.68,0-1.44,2.3-10.81,6.92-28.11,0-2.6-1.01-3.89-3.03-3.89-1.73,0-3.32,1.88-4.76,5.62-1.73,3.18-3.46,7.93-5.19,14.27-1.73,6.35-2.6,13.27-2.6,20.76,0,4.91,1.01,9.23,3.03,12.98,1.73,3.46,4.76,5.19,9.08,5.19Z"/>
        <path class="cls-1" d="M459.78,240.49l-19.44-142.59,1.28,1.15,4.33,4.33,3.03,3.03c.57.58,1.44.86,2.6.86,2.3,0,3.46-1.3,3.46-3.89,0-1.15-3.61-10.23-10.81-27.25-6.92-17.01-11.39-28.11-13.41-33.31-.87-2.3-2.02-3.46-3.46-3.46-1.16,0-4.62,7.21-10.38,21.63,2.3,12.69,5.62,35.76,9.95,69.21,15.86,112.75,24.22,178.79,25.09,198.1,0,3.46,1.01,5.19,3.03,5.19,2.3,0,4.47-3.46,6.49-10.38,2.01-6.92,3.03-16.29,3.03-28.11,0-13.26-1.59-31.43-4.76-54.5Z"/>
        <path class="cls-1" d="M409.61,255.63c-6.92,0-13.7,1.73-20.33,5.19-.87-2.3-1.88-5.33-3.03-9.08-2.02-7.5-4.47-19.75-7.35-36.77-2.6-17.01-5.34-34.89-8.22-53.63-2.6-18.74-4.91-35.04-6.92-48.88l-2.15-15.02.85.74,3.89,3.46c1.15,1.16,2.16,2.16,3.03,3.03.57.58,1.3.86,2.16.86,2.6,0,3.89-1.15,3.89-3.46,0-1.44-7.93-21.77-23.79-60.99-.87-1.15-1.73-1.73-2.6-1.73-1.16,0-2.02.58-2.6,1.73-.58,1.16-1.3,2.74-2.16,4.76-.87,1.73-1.88,3.75-3.03,6.06-.87,2.02-1.59,3.75-2.16,5.19l-1.3,3.46c2.88,12.11,6.34,35.62,10.38,70.5,2.3,20.48,5.62,43.83,9.95,70.07,4.04,26.24,8.79,48.88,14.27,67.91l-5.19,2.6c-16.44,9.23-32.01,13.84-46.71,13.84-12.69,0-24.22-3.6-34.6-10.81-6.64-4.33-12.4-18.17-17.3-41.52-2.31-12.98-7.35-45.42-15.14-97.32-10.38-64.88-17.59-97.32-21.63-97.32-2.6,0-4.62,6.35-6.06,19.03-.29,2.31-.58,4.33-.86,6.06-.29,1.73-.43,3.89-.43,6.49,0,2.89,1.87,16.15,5.62,39.79,16.72,107.56,25.09,166.67,25.09,177.34,0,4.91-.43,7.79-1.3,8.65-.87.86-2.6,2.02-5.19,3.46-2.6,1.16-5.77,2.31-9.52,3.46-3.46,1.16-7.21,1.73-11.25,1.73-7.21,0-13.27-2.3-18.17-6.92-1.73-1.15-4.18-6.2-7.35-15.14-3.18-8.93-6.35-24.22-9.52-45.85-2.02-11.25-6.06-39.07-12.11-83.48-5.77-40.66-9.23-64.59-10.38-71.8-1.16-7.2-2.74-14.42-4.76-21.63-2.02-6.92-3.61-11.53-4.76-13.84-.86-2.01-2.02-3.03-3.46-3.03-1.73,0-2.89,1.3-3.46,3.89-2.6,6.06-3.89,12.83-3.89,20.33,0,4.33,7.64,56.23,22.92,155.71,2.3,15.86,3.46,26.24,3.46,31.14l-.43,6.49c-.58,4.62-1.88,8.08-3.89,10.38-2.02,2.02-7.5,6.35-16.44,12.98-8.65,6.35-19.75,12.69-33.31,19.03-13.27,6.35-27.97,10.81-44.12,13.41-2.6.29-6.06.43-10.38.43-34.32,0-51.47-14.13-51.47-42.39,0-10.66,2.88-23.64,8.65-38.93l.43-2.6c8.65,0,14.27-11.82,16.87-35.47v-1.3c0-2.88-1.16-4.33-3.46-4.33-1.73,0-3.03,1.73-3.89,5.19-.87,3.46-2.16,6.35-3.89,8.65-1.73,2.02-3.46,3.03-5.19,3.03-2.89,0-5.62-2.3-8.22-6.92-.86-1.15-1.59-4.03-2.16-8.65-.58-4.61-.86-8.07-.86-10.38,0-7.79,2.3-21.48,6.92-41.09l.87-6.49c0-3.46-1.01-5.33-3.03-5.62-2.02,0-4.18,3.18-6.49,9.52-2.02,6.06-4.04,14.13-6.06,24.22-2.02,10.1-3.03,19.9-3.03,29.41,0,5.19.14,10.53.43,16,.57,4.04,2.16,8.65,4.76,13.84,2.3,4.91,4.9,8.08,7.79,9.52C5.62,252.32,0,270.62,0,286.77c0,19.9,8.93,35.04,26.82,45.42,9.8,6.06,21.91,9.08,36.33,9.08,17.59,0,38.64-4.9,63.15-14.71,4.61-1.73,11.25-5.04,19.9-9.95,8.36-4.61,16.44-10.38,24.22-17.3,5.65-5.22,9.91-10.93,12.78-17.13.88,3.81,2.24,8.22,4.09,13.24,1.73,5.48,4.03,10.96,6.92,16.44,2.6,5.19,5.91,9.52,9.95,12.98,6.92,5.48,15.42,8.22,25.52,8.22,6.34,0,12.54-1.3,18.6-3.89,6.06-2.6,10.96-6.92,14.71-12.98,3.74-6.06,5.76-14.71,6.06-25.95v-.43c2.01,2.89,5.19,6.2,9.52,9.95,4.33,3.46,9.66,6.64,16,9.52,6.34,2.89,13.55,4.33,21.63,4.33,14.36,0,35.87-7.29,64.53-21.88,1.43,3.39,3.27,6.51,5.54,9.34l.87.87c1.44,1.73,3.46,4.04,6.06,6.92,2.6,2.6,5.91,5.05,9.95,7.35,4.04,2.02,8.79,3.03,14.27,3.03,15.86,0,23.79-8.93,23.79-26.82,0-24.51-10.53-36.77-31.58-36.77ZM422.15,292.39c-8.08,0-14.71-3.17-19.9-9.52.28-.28,1.87-.43,4.76-.43,4.9,0,9.66,1.88,14.27,5.62,2.01,2.02,3.03,3.46,3.03,4.33h-2.16Z"/>
        <path class="cls-2" d="M372.41,339.97c-1.45,0-2.6,1.01-3.46,3.03-.58,1.45-1.45,2.74-2.6,3.89-.87.87-1.73,1.3-2.6,1.3-3.18,0-4.76-3.6-4.76-10.81,0-4.33,1.73-11.82,5.19-22.49.57-2.01.87-3.31.87-3.89,0-2.3-.87-3.46-2.6-3.46s-3.18,1.73-4.33,5.19c-1.73,2.89-3.46,7.35-5.19,13.41-1.73,5.77-2.6,12.11-2.6,19.03v3.46c0,2.6.86,5.47,2.6,8.65,1.73,3.17,4.61,5.04,8.65,5.62,5.19,0,9.23-4.62,12.11-13.84.87-3.46,1.3-5.47,1.3-6.06,0-1.44-.86-2.45-2.6-3.03Z"/>
        <path class="cls-2" d="M60.99,86.51l4.76-.87.87-3.03c.86,0,4.33,3.75,10.38,11.25,5.76,7.5,8.65,13.99,8.65,19.46s-4.76,13.12-14.27,22.92c-4.33,4.62-8.37,8.51-12.11,11.68-3.46,2.89-5.48,4.47-6.06,4.76-2.02,1.73-3.03,3.32-3.03,4.76,0,1.73,1.01,2.6,3.03,2.6,1.44,0,8.93-4.47,22.49-13.41,7.5-4.9,12.54-10.09,15.14-15.57,2.6-5.19,4.03-9.95,4.33-14.27.87-2.88,1.73-10.66,2.6-23.36,1.15-17.88,3.74-26.82,7.79-26.82,1.44,0,4.03,1.88,7.79,5.62,2.3,2.89,4.33,4.33,6.06,4.33,4.03,0,6.06-4.61,6.06-13.84,0-2.3-.43-4.47-1.3-6.49-.58-.57-1.59-1.73-3.03-3.46-1.45-1.73-3.32-3.46-5.62-5.19-2.31-1.73-4.76-2.6-7.35-2.6-2.89,0-5.62,1.45-8.22,4.33-4.62,6.64-7.64,13.84-9.08,21.63-1.07,5.76-1.9,11.83-2.49,18.22-.31-.7-.63-1.44-.97-2.21-2.31-4.9-6.06-10.38-11.25-16.44-4.91-6.06-11.39-11.53-19.46-16.44-.58-.57-1.3-.87-2.16-.87-1.73,0-3.32.87-4.76,2.6-1.45,1.45-2.31,3.46-2.6,6.06v7.35c0,4.33.72,7.35,2.16,9.08,1.44,1.73,5.33,4.47,11.68,8.22Z"/>
        <path class="cls-2" d="M182.53,330.02c-1.16,0-2.89.72-5.19,2.16l-31.58,12.11c-28.55,11.53-43.69,17.73-45.42,18.6-2.02,1.15-3.75,2.3-5.19,3.46-1.16.86-2.02,3.03-2.6,6.49l-.43,1.73c-.58.87-.86,1.73-.86,2.6,0,1.73,1.15,2.6,3.46,2.6l80.88-32.01c1.44-.87,2.74-1.73,3.89-2.6,1.15-.86,2.45-2.88,3.89-6.06,1.44-2.88,2.16-4.9,2.16-6.06,0-2.01-1.01-3.03-3.03-3.03Z"/>
      </g>
      <g>
        <path class="cls-1" d="M627.6,47.12h67.07l74.35,119.6,74.35-119.6h67.07v282.84h-61.82v-184.65l-79.6,120.81h-1.62l-78.79-119.6v183.44h-61.01V47.12Z"/>
        <path class="cls-1" d="M951.97,253.59V113.38h61.42v120.81c0,29.09,13.74,44.04,37.17,44.04s38.38-14.95,38.38-44.04v-120.81h61.42v216.57h-61.42v-30.71c-14.14,18.18-32.32,34.75-63.44,34.75-46.47,0-73.54-30.71-73.54-80.41Z"/>
        <path class="cls-1" d="M1189.56,34.99h61.42v294.96h-61.42V34.99Z"/>
        <path class="cls-1" d="M1295.25,34.99h61.42v157.18l71.92-78.79h73.54l-82.43,85.25,85.25,131.32h-71.11l-55.36-88.89-21.82,23.03v65.86h-61.42V34.99Z"/>
        <path class="cls-2" d="M1525.92,285.91l42.83-40.81c19.39,21.82,39.6,33.94,68.29,33.94,23.43,0,40-13.33,40-34.34v-.81c0-23.03-20.61-35.96-55.36-35.96h-25.86l-9.7-39.6,67.48-67.88h-111.11v-53.33h191.12v46.87l-71.52,68.29c38.38,6.46,75.96,26.67,75.96,79.19v.81c0,53.33-38.79,92.53-101.82,92.53-50.91,0-86.06-20.2-110.31-48.89Z"/>
        <path class="cls-2" d="M1763.81,189.34v-.81c0-82.02,50.91-146.27,126.06-146.27s125.26,63.44,125.26,145.46v.81c0,82.02-50.51,146.27-126.06,146.27s-125.26-63.44-125.26-145.46ZM1951.29,189.34v-.81c0-51.31-25.05-90.1-62.22-90.1s-61.42,37.58-61.42,89.3v.81c0,51.72,24.65,90.1,62.22,90.1s61.42-37.98,61.42-89.3Z"/>
      </g>
    </g>
  </g>
</svg>