<?xml version="1.0" encoding="UTF-8"?>
<svg id="Layer_2" data-name="Layer 2" xmlns="http://www.w3.org/2000/svg" viewBox="0 0 1387.53 979.15">
  <defs>
    <style>
      .cls-1 {
        fill: #231f20;
      }

      .cls-2 {
        fill: #318fb5;
      }
    </style>
  </defs>
  <g id="Layer_1-2" data-name="Layer 1">
    <g>
      <g>
        <path class="cls-2" d="M653.88,34.9c2.07,0,4.36-1.25,6.86-3.74,1.25-1.66,2.7-3.12,4.36-4.36,1.66-1.25,4.77-1.87,9.35-1.87,17.03,0,25.55.21,25.55.62l-16.83,11.22c-5.4,4.58-8.1,8.52-8.1,11.84,0,2.49,1.45,3.74,4.36,3.74,1.66,0,3.74-.62,6.23-1.87,15.78-5.81,28.45-15.58,38.02-29.29,2.07-3.74,3.12-6.64,3.12-8.72,0-8.31-13.51-12.46-40.51-12.46-16.62,0-28.04,7.48-34.28,22.44-.42.84-1.04,1.87-1.87,3.12-.84.84-1.25,2.08-1.25,3.74,0,3.74,1.66,5.61,4.99,5.61Z"/>
        <path class="cls-2" d="M754.22,311.6l1.87-.62c15.37-6.64,28.25-14.12,38.64-22.44,10.38-8.31,18.7-16.41,24.93-24.31,6.23-7.48,10.8-13.91,13.71-19.32l2.49-4.36,6.86,6.23c1.65,2.91,3.52,4.36,5.61,4.36,4.15,0,6.23-4.36,6.23-13.09,0-7.48-2.91-12.87-8.73-16.2,1.25-4.99,1.87-9.13,1.87-12.46,0-9.13-2.29-17.86-6.86-26.17-.42-1.25-1.87-2.7-4.36-4.36-2.08-1.66-4.99-2.49-8.73-2.49-6.23,0-12.26,4.36-18.07,13.09-4.58,6.65-6.86,14.13-6.86,22.44,0,5.4,1.45,9.56,4.36,12.46,2.9,2.49,5.81,4.58,8.72,6.23,2.49,1.25,4.77,2.29,6.86,3.12-9.56,13.71-20.98,26.59-34.28,38.64-12.88,12.06-24.31,21.4-34.28,28.04-2.91,2.49-4.36,4.78-4.36,6.86,0,2.91,1.45,4.36,4.36,4.36ZM821.52,208.15c-1.67-.83-2.49-1.45-2.49-1.87v-.62c3.32-4.57,5.81-6.86,7.48-6.86h.62c2.07,2.08,3.53,4.58,4.36,7.48.41,2.49.62,4.58.62,6.23v.83l-1.25-.83c-1.67-.41-3.33-1.03-4.99-1.87-1.25-.83-2.71-1.66-4.36-2.49Z"/>
        <path class="cls-2" d="M506.8,285.43c-2.91-.83-4.36-1.45-4.36-1.87,0-1.25.83-3.12,2.49-5.61,5.81-6.64,11.42-9.97,16.83-9.97l3.12.62c8.72,0,13.09-7.68,13.09-23.06,0-9.13-4.36-13.71-13.09-13.71-5.4,0-10.81,2.08-16.2,6.23-4.99,3.74-9.97,11.01-14.96,21.81-7.9,17.45-11.84,31.37-11.84,41.75,0,12.06,4.77,18.29,14.33,18.7h12.46c12.05,0,18.07,1.25,18.07,3.74,0,.84-.21,1.46-.62,1.87-2.91,3.74-8.1,6.86-15.58,9.35-7.07,2.49-14.13,3.74-21.19,3.74-15.79,0-23.68,2.08-23.68,6.23,0,8.32,13.5,13.3,40.51,14.96,5.39,0,11-1.03,16.83-3.12,5.81-2.07,10.18-5.39,13.09-9.97,3.74-7.06,6.44-14.12,8.1-21.19,1.66-6.64,2.49-12.25,2.49-16.83,0-13.71-5.2-20.98-15.58-21.81-12.88,0-20.98-.62-24.3-1.87Z"/>
        <path class="cls-2" d="M784.13,150.82c9.13,0,15.58-8.72,19.32-26.17,0-.83.2-1.45.62-1.87v-1.87c0-3.32-1.46-4.99-4.36-4.99-1.67,0-3.33,1.67-4.99,4.99-.84,2.49-2.08,4.58-3.74,6.23-1.25,1.25-2.49,1.87-3.74,1.87-5.4,0-8.1-5.61-8.1-16.83,0-2.07,3.32-15.58,9.97-40.51,0-3.74-1.46-5.61-4.36-5.61-2.49,0-4.78,2.71-6.86,8.1-2.49,4.58-4.99,11.43-7.48,20.57-2.49,9.14-3.74,19.11-3.74,29.91,0,7.07,1.45,13.3,4.36,18.7,2.49,4.99,6.86,7.48,13.09,7.48Z"/>
        <path class="cls-1" d="M1021.57,346.5l-28.02-205.45,1.84,1.66,6.23,6.23,4.36,4.36c.83.84,2.07,1.25,3.74,1.25,3.32,0,4.99-1.87,4.99-5.61,0-1.66-5.2-14.74-15.58-39.26-9.97-24.51-16.42-40.51-19.32-47.99-1.25-3.32-2.91-4.99-4.99-4.99-1.67,0-6.65,10.39-14.96,31.16,3.32,18.29,8.1,51.52,14.33,99.71,22.84,162.45,34.9,257.6,36.15,285.43,0,4.99,1.45,7.48,4.36,7.48,3.32,0,6.44-4.99,9.35-14.96,2.9-9.97,4.36-23.47,4.36-40.51,0-19.11-2.29-45.28-6.86-78.52Z"/>
        <path class="cls-1" d="M949.28,368.32c-9.97,0-19.74,2.49-29.29,7.48-1.25-3.32-2.71-7.68-4.36-13.09-2.91-10.8-6.45-28.45-10.59-52.97-3.74-24.51-7.69-50.27-11.84-77.28-3.74-27-7.07-50.48-9.97-70.42l-3.09-21.63,1.22,1.07,5.61,4.99c1.65,1.67,3.12,3.12,4.36,4.36.83.84,1.87,1.25,3.12,1.25,3.74,0,5.61-1.66,5.61-4.99,0-2.07-11.43-31.36-34.28-87.87-1.25-1.66-2.49-2.49-3.74-2.49-1.67,0-2.91.84-3.74,2.49-.84,1.67-1.87,3.95-3.12,6.86-1.25,2.49-2.71,5.4-4.36,8.72-1.25,2.91-2.29,5.4-3.12,7.48l-1.87,4.99c4.15,17.45,9.13,51.32,14.96,101.58,3.32,29.5,8.1,63.16,14.33,100.96,5.81,37.81,12.67,70.42,20.57,97.84l-7.48,3.74c-23.68,13.3-46.12,19.94-67.31,19.94-18.29,0-34.9-5.19-49.86-15.58-9.56-6.23-17.87-26.17-24.93-59.83-3.33-18.7-10.59-65.44-21.81-140.22-14.96-93.48-25.35-140.22-31.16-140.22-3.74,0-6.65,9.14-8.72,27.42-.42,3.33-.84,6.23-1.25,8.72-.42,2.49-.62,5.61-.62,9.35,0,4.16,2.7,23.27,8.1,57.34,24.09,154.97,36.15,240.15,36.15,255.51,0,7.07-.62,11.22-1.87,12.46-1.25,1.25-3.74,2.91-7.48,4.99-3.74,1.67-8.32,3.33-13.71,4.99-4.99,1.67-10.39,2.49-16.2,2.49-10.39,0-19.11-3.32-26.17-9.97-2.49-1.66-6.03-8.93-10.59-21.81-4.58-12.87-9.14-34.9-13.71-66.06-2.91-16.2-8.72-56.29-17.45-120.28-8.32-58.58-13.3-93.06-14.96-103.45-1.67-10.38-3.95-20.77-6.86-31.16-2.91-9.97-5.2-16.61-6.86-19.94-1.25-2.9-2.91-4.36-4.99-4.36-2.49,0-4.16,1.87-4.99,5.61-3.74,8.72-5.61,18.49-5.61,29.29,0,6.23,11,81.02,33.03,224.35,3.32,22.85,4.99,37.81,4.99,44.87l-.62,9.35c-.84,6.65-2.71,11.64-5.61,14.96-2.91,2.91-10.81,9.14-23.68,18.7-12.46,9.14-28.46,18.29-47.99,27.42-19.11,9.14-40.3,15.58-63.57,19.32-3.74.42-8.72.62-14.96.62-49.45,0-74.16-20.35-74.16-61.07,0-15.37,4.15-34.06,12.46-56.09l.62-3.74c12.46,0,20.57-17.03,24.31-51.1v-1.87c0-4.15-1.67-6.23-4.99-6.23-2.49,0-4.36,2.49-5.61,7.48-1.25,4.99-3.12,9.14-5.61,12.46-2.49,2.91-4.99,4.36-7.48,4.36-4.16,0-8.1-3.32-11.84-9.97-1.25-1.66-2.29-5.81-3.12-12.46-.84-6.64-1.25-11.63-1.25-14.96,0-11.22,3.32-30.95,9.97-59.2l1.25-9.35c0-4.99-1.46-7.68-4.36-8.1-2.91,0-6.03,4.58-9.35,13.71-2.91,8.72-5.82,20.36-8.72,34.9-2.91,14.55-4.36,28.67-4.36,42.38,0,7.48.2,15.17.62,23.06.83,5.82,3.12,12.46,6.86,19.94,3.32,7.07,7.06,11.64,11.22,13.71-16.2,29.5-24.31,55.88-24.31,79.15,0,28.67,12.87,50.48,38.64,65.44,14.12,8.72,31.57,13.09,52.35,13.09,25.34,0,55.67-7.06,90.99-21.19,6.64-2.49,16.2-7.26,28.67-14.33,12.05-6.64,23.68-14.96,34.9-24.93,8.14-7.52,14.28-15.75,18.41-24.69,1.27,5.5,3.23,11.85,5.89,19.08,2.49,7.9,5.81,15.79,9.97,23.68,3.74,7.48,8.51,13.71,14.33,18.7,9.97,7.9,22.22,11.84,36.77,11.84,9.13,0,18.07-1.87,26.8-5.61,8.72-3.74,15.78-9.97,21.19-18.7,5.39-8.72,8.31-21.19,8.72-37.39v-.62c2.9,4.16,7.48,8.94,13.71,14.33,6.23,4.99,13.92,9.56,23.06,13.71,9.13,4.16,19.52,6.23,31.16,6.23,20.68,0,51.68-10.51,92.97-31.52,2.06,4.88,4.72,9.38,7.99,13.45l1.25,1.25c2.07,2.49,4.99,5.82,8.73,9.97,3.74,3.74,8.51,7.27,14.33,10.59,5.81,2.91,12.67,4.36,20.57,4.36,22.84,0,34.28-12.87,34.28-38.64,0-35.31-15.17-52.97-45.49-52.97ZM967.35,421.29c-11.64,0-21.19-4.57-28.67-13.71.41-.41,2.7-.62,6.86-.62,7.06,0,13.91,2.71,20.57,8.1,2.9,2.91,4.36,4.99,4.36,6.23h-3.12Z"/>
        <path class="cls-2" d="M895.69,489.84c-2.08,0-3.74,1.46-4.99,4.36-.84,2.08-2.08,3.95-3.74,5.61-1.25,1.25-2.49,1.87-3.74,1.87-4.58,0-6.86-5.19-6.86-15.58,0-6.23,2.49-17.03,7.48-32.41.83-2.9,1.25-4.77,1.25-5.61,0-3.32-1.25-4.99-3.74-4.99s-4.58,2.49-6.23,7.48c-2.49,4.16-4.99,10.59-7.48,19.32-2.49,8.32-3.74,17.45-3.74,27.42v4.99c0,3.74,1.25,7.89,3.74,12.46,2.49,4.57,6.64,7.26,12.46,8.1,7.48,0,13.29-6.65,17.45-19.94,1.25-4.99,1.87-7.89,1.87-8.72,0-2.07-1.25-3.52-3.74-4.36Z"/>
        <path class="cls-2" d="M446.98,124.64l6.86-1.25,1.25-4.36c1.25,0,6.23,5.4,14.96,16.2,8.31,10.81,12.46,20.16,12.46,28.04s-6.86,18.91-20.57,33.03c-6.23,6.65-12.06,12.26-17.45,16.83-4.99,4.16-7.9,6.45-8.72,6.86-2.91,2.49-4.36,4.78-4.36,6.86,0,2.49,1.45,3.74,4.36,3.74,2.07,0,12.87-6.44,32.41-19.32,10.8-7.06,18.07-14.54,21.81-22.44,3.74-7.48,5.81-14.33,6.23-20.57,1.25-4.15,2.49-15.37,3.74-33.65,1.66-25.76,5.39-38.64,11.22-38.64,2.07,0,5.81,2.71,11.22,8.1,3.32,4.16,6.23,6.23,8.72,6.23,5.81,0,8.72-6.64,8.72-19.94,0-3.32-.62-6.44-1.87-9.35-.84-.83-2.29-2.49-4.36-4.99-2.08-2.49-4.78-4.99-8.1-7.48-3.33-2.49-6.86-3.74-10.59-3.74-4.16,0-8.1,2.08-11.84,6.23-6.65,9.56-11.01,19.94-13.09,31.16-1.54,8.29-2.73,17.05-3.59,26.25-.44-1.01-.9-2.07-1.4-3.19-3.33-7.06-8.72-14.96-16.2-23.68-7.07-8.72-16.42-16.61-28.04-23.68-.84-.83-1.87-1.25-3.12-1.25-2.49,0-4.78,1.25-6.86,3.74-2.08,2.08-3.33,4.99-3.74,8.72v10.59c0,6.23,1.03,10.59,3.12,13.09,2.07,2.49,7.68,6.45,16.83,11.84Z"/>
        <path class="cls-2" d="M622.1,475.51c-1.67,0-4.16,1.04-7.48,3.12l-45.49,17.45c-41.13,16.61-62.94,25.55-65.44,26.8-2.91,1.66-5.4,3.32-7.48,4.99-1.67,1.25-2.91,4.36-3.74,9.35l-.62,2.49c-.84,1.25-1.25,2.49-1.25,3.74,0,2.49,1.66,3.74,4.99,3.74l116.54-46.12c2.07-1.25,3.94-2.49,5.61-3.74,1.66-1.25,3.53-4.15,5.61-8.72,2.07-4.15,3.12-7.06,3.12-8.72,0-2.9-1.46-4.36-4.36-4.36Z"/>
      </g>
      <g>
        <path class="cls-1" d="M0,691.46h67.07l74.35,119.6,74.35-119.6h67.07v282.84h-61.82v-184.65l-79.6,120.81h-1.62l-78.79-119.6v183.44H0v-282.84Z"/>
        <path class="cls-1" d="M324.37,897.93v-140.21h61.42v120.81c0,29.09,13.74,44.04,37.17,44.04s38.38-14.95,38.38-44.04v-120.81h61.42v216.57h-61.42v-30.71c-14.14,18.18-32.32,34.75-63.44,34.75-46.47,0-73.54-30.71-73.54-80.41Z"/>
        <path class="cls-1" d="M561.96,679.34h61.42v294.96h-61.42v-294.96Z"/>
        <path class="cls-1" d="M667.65,679.34h61.42v157.18l71.92-78.79h73.54l-82.43,85.25,85.25,131.32h-71.11l-55.36-88.89-21.82,23.03v65.86h-61.42v-294.96Z"/>
        <path class="cls-2" d="M898.32,930.26l42.83-40.81c19.39,21.82,39.6,33.94,68.29,33.94,23.43,0,40-13.33,40-34.34v-.81c0-23.03-20.61-35.96-55.36-35.96h-25.86l-9.7-39.6,67.48-67.88h-111.11v-53.33h191.12v46.87l-71.52,68.29c38.38,6.46,75.96,26.67,75.96,79.19v.81c0,53.33-38.79,92.53-101.82,92.53-50.91,0-86.06-20.2-110.31-48.89Z"/>
        <path class="cls-2" d="M1136.21,833.69v-.81c0-82.02,50.91-146.27,126.06-146.27s125.26,63.44,125.26,145.46v.81c0,82.02-50.51,146.27-126.06,146.27s-125.26-63.44-125.26-145.46ZM1323.69,833.69v-.81c0-51.31-25.05-90.1-62.22-90.1s-61.42,37.58-61.42,89.3v.81c0,51.72,24.65,90.1,62.22,90.1s61.42-37.98,61.42-89.3Z"/>
      </g>
    </g>
  </g>
</svg>